<svg width="105" height="15" viewBox="0 0 105 15" fill="none" xmlns="http://www.w3.org/2000/svg">
<g clip-path="url(#clip0_326_134)">
<path d="M1.65844 11V6.02H0.758438V5.24H1.65844V4.16C1.65844 3.08 2.25844 2.48 3.21844 2.48C3.69844 2.48 4.05844 2.66 4.05844 2.66V3.44C4.05844 3.44 3.69844 3.26 3.27844 3.26C2.79844 3.26 2.49844 3.56 2.49844 4.16V5.24H5.91844V11H5.07844V6.02H2.49844V11H1.65844ZM4.95844 3.32C4.95844 3.02 5.19844 2.78 5.49844 2.78C5.79844 2.78 6.03844 3.02 6.03844 3.32C6.03844 3.62 5.79844 3.86 5.49844 3.86C5.19844 3.86 4.95844 3.62 4.95844 3.32ZM9.39891 11L7.05891 5.24H7.95891L9.81891 9.86L11.6789 5.24H12.5789L10.2389 11H9.39891ZM18.0417 9.38L18.5817 9.92C18.5817 9.92 17.7417 11.12 16.1817 11.12C14.6217 11.12 13.3017 9.8 13.3017 8.12C13.3017 6.44 14.6217 5.12 16.1217 5.12C17.6817 5.12 18.8817 6.32 18.8817 8C18.8817 8.24 18.8217 8.432 18.8217 8.432L14.1417 8.42C14.2017 9.44 15.1017 10.34 16.1817 10.34C17.3937 10.34 18.0417 9.38 18.0417 9.38ZM14.1417 7.7H18.0417C17.9217 6.68 17.1417 5.9 16.1217 5.9C15.1017 5.9 14.2617 6.74 14.1417 7.7ZM20.378 11V5.24H21.218V5.96C21.218 5.96 21.698 5.12 22.838 5.12C24.218 5.12 24.698 6.14 24.698 6.14C24.698 6.14 25.238 5.12 26.678 5.12C27.938 5.12 28.898 5.972 28.898 7.58V11H28.058V7.58C28.058 6.488 27.458 5.9 26.618 5.9C25.778 5.9 25.058 6.62 25.058 7.82V11H24.218V7.58C24.218 6.5 23.618 5.9 22.778 5.9C21.938 5.9 21.218 6.62 21.218 7.82V11H20.378ZM68.5434 11V2.6H69.3834V11H68.5434ZM73.8863 11.12C72.2663 11.12 70.9463 9.8 70.9463 8.12C70.9463 6.44 72.2663 5.12 73.8863 5.12C75.5063 5.12 76.8263 6.44 76.8263 8.12C76.8263 9.8 75.5063 11.12 73.8863 11.12ZM73.8863 10.34C75.0263 10.34 75.9863 9.38 75.9863 8.12C75.9863 6.86 75.0263 5.9 73.8863 5.9C72.7463 5.9 71.7863 6.86 71.7863 8.12C71.7863 9.368 72.7463 10.34 73.8863 10.34ZM80.8472 11.12C79.2272 11.12 77.9072 9.8 77.9072 8.12C77.9072 6.44 79.2272 5.12 80.8472 5.12C82.4672 5.12 83.7872 6.44 83.7872 8.12C83.7872 9.8 82.4672 11.12 80.8472 11.12ZM80.8472 10.34C81.9872 10.34 82.9472 9.38 82.9472 8.12C82.9472 6.86 81.9872 5.9 80.8472 5.9C79.7072 5.9 78.7472 6.86 78.7472 8.12C78.7472 9.368 79.7072 10.34 80.8472 10.34ZM85.3481 11V2.6H86.1881V8.3L89.0681 5.24H90.0881L87.8681 7.58L90.3281 11H89.3681L87.3281 8.18L86.1881 9.38V11H85.3481ZM91.4053 8.6V5.24H92.2453V8.6C92.2453 9.62 92.9653 10.34 93.8653 10.34C94.8253 10.34 95.6053 9.56 95.6053 8.42V5.24H96.4453V11H95.6053V10.22C95.6053 10.22 95.0053 11.12 93.7453 11.12C92.4253 11.12 91.4053 10.1 91.4053 8.6ZM98.4248 13.52V5.24H99.2648V6.08C99.2648 6.08 99.9248 5.12 101.245 5.12C102.805 5.12 104.065 6.38 104.065 8.12C104.065 9.86 102.805 11.12 101.245 11.12C99.9248 11.12 99.2648 10.16 99.2648 10.16V13.52H98.4248ZM101.245 10.34C102.325 10.34 103.225 9.44 103.225 8.12C103.225 6.8 102.325 5.9 101.245 5.9C100.225 5.9 99.2648 6.86 99.2648 8.12C99.2648 9.38 100.225 10.34 101.245 10.34Z" fill="white"/>
<path d="M32.7989 10.1L33.3989 9.5C33.3989 9.5 33.9389 10.34 34.8989 10.34C35.7389 10.34 36.1589 9.92 36.1589 9.38C36.1589 8.06 33.0389 8.72 33.0389 6.74C33.0389 5.9 33.8189 5.12 34.9589 5.12C36.1589 5.12 36.8189 5.9 36.8189 5.9L36.2189 6.5C36.2189 6.5 35.7989 5.9 34.9589 5.9C34.2989 5.9 33.8789 6.32 33.8789 6.74C33.8789 8 36.9989 7.34 36.9989 9.38C36.9989 10.34 36.2189 11.12 34.8989 11.12C33.4589 11.12 32.7989 10.1 32.7989 10.1ZM42.8152 9.38L43.3552 9.92C43.3552 9.92 42.5152 11.12 40.9552 11.12C39.3952 11.12 38.0752 9.8 38.0752 8.12C38.0752 6.44 39.3952 5.12 40.8952 5.12C42.4552 5.12 43.6552 6.32 43.6552 8C43.6552 8.24 43.5952 8.432 43.5952 8.432L38.9152 8.42C38.9752 9.44 39.8752 10.34 40.9552 10.34C42.1672 10.34 42.8152 9.38 42.8152 9.38ZM38.9152 7.7H42.8152C42.6952 6.68 41.9152 5.9 40.8952 5.9C39.8752 5.9 39.0352 6.74 38.9152 7.7ZM45.1514 11V5.24H45.9914V6.02C45.9914 6.02 46.5914 5.12 47.9114 5.12H48.1514V5.96H47.7914C46.8314 5.96 45.9914 6.68 45.9914 7.82V11H45.1514ZM51.0825 11L48.7425 5.24H49.6425L51.5025 9.86L53.3625 5.24H54.2625L51.9225 11H51.0825ZM59.7253 9.38L60.2653 9.92C60.2653 9.92 59.4253 11.12 57.8653 11.12C56.3053 11.12 54.9853 9.8 54.9853 8.12C54.9853 6.44 56.3053 5.12 57.8053 5.12C59.3653 5.12 60.5653 6.32 60.5653 8C60.5653 8.24 60.5053 8.432 60.5053 8.432L55.8253 8.42C55.8853 9.44 56.7853 10.34 57.8653 10.34C59.0773 10.34 59.7253 9.38 59.7253 9.38ZM55.8253 7.7H59.7253C59.6053 6.68 58.8253 5.9 57.8053 5.9C56.7853 5.9 55.9453 6.74 55.8253 7.7ZM62.0616 11V5.24H62.9016V6.02C62.9016 6.02 63.5016 5.12 64.8216 5.12H65.0616V5.96H64.7016C63.7416 5.96 62.9016 6.68 62.9016 7.82V11H62.0616Z" fill="#2D73DD"/>
</g>
<defs>
<clipPath id="clip0_326_134">
<rect width="105" height="15" fill="white"/>
</clipPath>
</defs>
</svg>
