<svg width="1000" height="63" viewBox="0 0 1000 63" fill="none" xmlns="http://www.w3.org/2000/svg">
<rect width="1000" height="63" fill="#444444"/>
<path d="M404.01 39V27.48H405.69V29.16C405.69 29.16 406.89 27.24 409.41 27.24C412.17 27.24 414.09 29.16 414.09 32.16V39H412.41V32.16C412.41 30.12 411.09 28.8 409.29 28.8C407.25 28.8 405.69 30.36 405.69 32.64V39H404.01ZM422.972 39.24C419.732 39.24 417.092 36.6 417.092 33.24C417.092 29.88 419.732 27.24 422.972 27.24C426.212 27.24 428.852 29.88 428.852 33.24C428.852 36.6 426.212 39.24 422.972 39.24ZM422.972 37.68C425.252 37.68 427.172 35.76 427.172 33.24C427.172 30.72 425.252 28.8 422.972 28.8C420.692 28.8 418.772 30.72 418.772 33.24C418.772 35.736 420.692 37.68 422.972 37.68ZM437.013 39V22.2H438.693V29.16C438.693 29.16 440.013 27.24 442.653 27.24C445.773 27.24 448.293 29.76 448.293 33.24C448.293 36.72 445.773 39.24 442.653 39.24C440.013 39.24 438.693 37.32 438.693 37.32V39H437.013ZM442.653 37.68C444.813 37.68 446.613 35.88 446.613 33.24C446.613 30.6 444.813 28.8 442.653 28.8C440.613 28.8 438.693 30.72 438.693 33.24C438.693 35.76 440.613 37.68 442.653 37.68ZM458.243 39V37.44C458.243 37.44 457.043 39.24 454.523 39.24C452.123 39.24 450.443 37.56 450.443 35.88C450.443 33.96 451.643 32.76 453.803 32.4L458.243 31.68C458.243 30 457.043 28.8 455.363 28.8C453.323 28.8 452.123 30.48 452.123 30.48L451.043 29.4C451.043 29.4 452.603 27.24 455.363 27.24C458.003 27.24 459.923 29.16 459.923 31.68V39H458.243ZM458.243 33.84V33.12L454.283 33.84C452.843 34.104 452.123 34.8 452.123 35.88C452.123 36.84 452.963 37.68 454.523 37.68C456.683 37.68 458.243 36.12 458.243 33.84ZM463.752 39V27.48H465.432V29.16C465.432 29.16 466.632 27.24 469.152 27.24C471.912 27.24 473.832 29.16 473.832 32.16V39H472.152V32.16C472.152 30.12 470.832 28.8 469.032 28.8C466.992 28.8 465.432 30.36 465.432 32.64V39H463.752ZM477.674 39V27.48H479.354V29.16C479.354 29.16 480.554 27.24 483.074 27.24C485.834 27.24 487.754 29.16 487.754 32.16V39H486.074V32.16C486.074 30.12 484.754 28.8 482.954 28.8C480.914 28.8 479.354 30.36 479.354 32.64V39H477.674ZM500.236 35.76L501.316 36.84C501.316 36.84 499.636 39.24 496.516 39.24C493.396 39.24 490.756 36.6 490.756 33.24C490.756 29.88 493.396 27.24 496.396 27.24C499.516 27.24 501.916 29.64 501.916 33C501.916 33.48 501.796 33.864 501.796 33.864L492.436 33.84C492.556 35.88 494.356 37.68 496.516 37.68C498.94 37.68 500.236 35.76 500.236 35.76ZM492.436 32.4H500.236C499.996 30.36 498.436 28.8 496.396 28.8C494.356 28.8 492.676 30.48 492.436 32.4ZM504.908 39V27.48H506.588V29.04C506.588 29.04 507.788 27.24 510.428 27.24H510.908V28.92H510.188C508.268 28.92 506.588 30.36 506.588 32.64V39H504.908ZM518.352 39V29.04H516.552V27.48H518.352V25.32C518.352 23.16 519.552 21.96 521.472 21.96C522.432 21.96 523.152 22.32 523.152 22.32V23.88C523.152 23.88 522.432 23.52 521.592 23.52C520.632 23.52 520.032 24.12 520.032 25.32V27.48H522.792V29.04H520.032V39H518.352ZM530.48 39.24C527.24 39.24 524.6 36.6 524.6 33.24C524.6 29.88 527.24 27.24 530.48 27.24C533.72 27.24 536.36 29.88 536.36 33.24C536.36 36.6 533.72 39.24 530.48 39.24ZM530.48 37.68C532.76 37.68 534.68 35.76 534.68 33.24C534.68 30.72 532.76 28.8 530.48 28.8C528.2 28.8 526.28 30.72 526.28 33.24C526.28 35.736 528.2 37.68 530.48 37.68ZM539.361 34.2V27.48H541.041V34.2C541.041 36.24 542.481 37.68 544.281 37.68C546.201 37.68 547.761 36.12 547.761 33.84V27.48H549.441V39H547.761V37.44C547.761 37.44 546.561 39.24 544.041 39.24C541.401 39.24 539.361 37.2 539.361 34.2ZM553.4 39V27.48H555.08V29.16C555.08 29.16 556.28 27.24 558.8 27.24C561.56 27.24 563.48 29.16 563.48 32.16V39H561.8V32.16C561.8 30.12 560.48 28.8 558.68 28.8C556.64 28.8 555.08 30.36 555.08 32.64V39H553.4ZM576.082 39V37.32C576.082 37.32 574.762 39.24 572.122 39.24C569.002 39.24 566.482 36.72 566.482 33.24C566.482 29.76 569.002 27.24 572.122 27.24C574.762 27.24 576.082 29.16 576.082 29.16V22.2H577.762V39H576.082ZM572.122 37.68C574.162 37.68 576.082 35.76 576.082 33.24C576.082 30.72 574.162 28.8 572.122 28.8C569.962 28.8 568.162 30.6 568.162 33.24C568.162 35.88 569.962 37.68 572.122 37.68ZM586.152 38.04C586.152 37.32 586.632 36.84 587.352 36.84C588.072 36.84 588.552 37.32 588.552 38.04C588.552 38.76 588.072 39.24 587.352 39.24C586.632 39.24 586.152 38.76 586.152 38.04ZM586.152 28.44C586.152 27.72 586.632 27.24 587.352 27.24C588.072 27.24 588.552 27.72 588.552 28.44C588.552 29.16 588.072 29.64 587.352 29.64C586.632 29.64 586.152 29.16 586.152 28.44ZM597.071 43.56L595.751 44.28C595.751 44.28 591.791 39.96 591.791 33C591.791 26.04 595.751 21.72 595.751 21.72L597.071 22.44C597.071 22.44 593.351 26.64 593.351 33C593.351 39.36 597.071 43.56 597.071 43.56Z" fill="white"/>
</svg>
