<svg width="128" height="128" viewBox="0 0 128 128" fill="none" xmlns="http://www.w3.org/2000/svg">
<rect width="128" height="128" fill="#444444"/>
<path d="M53.5619 76.58C53.5619 75.14 54.5219 74.18 55.9619 74.18C57.4019 74.18 58.3619 75.14 58.3619 76.58C58.3619 78.02 57.4019 78.98 55.9619 78.98C54.5219 78.98 53.5619 78.02 53.5619 76.58ZM53.5619 57.38C53.5619 55.94 54.5219 54.98 55.9619 54.98C57.4019 54.98 58.3619 55.94 58.3619 57.38C58.3619 58.82 57.4019 59.78 55.9619 59.78C54.5219 59.78 53.5619 58.82 53.5619 57.38ZM75.4 87.62L72.76 89.06C72.76 89.06 64.84 80.42 64.84 66.5C64.84 52.58 72.76 43.94 72.76 43.94L75.4 45.38C75.4 45.38 67.96 53.78 67.96 66.5C67.96 79.22 75.4 87.62 75.4 87.62Z" fill="white"/>
</svg>
